<svg width="596.130517578125px" height="94.06719207763672px" xmlns="http://www.w3.org/2000/svg" viewBox="-48.06525878906251 27.96640396118164 596.130517578125 94.06719207763672" style="background: rgba(0, 0, 0, 0);" preserveAspectRatio="xMidYMid"><defs><filter id="editing-neon" x="-100%" y="-100%" width="300%" height="300%"><feFlood flood-color="#00ff2f" result="flood"></feFlood><feComposite operator="in" in="flood" in2="SourceAlpha" result="color"></feComposite><feFlood flood-color="#00ff2f" result="flood2"></feFlood><feComposite operator="in" in="flood2" in2="SourceAlpha" result="color2"></feComposite><feMorphology operator="dilate" radius="2" in="color" result="dilate"></feMorphology><feGaussianBlur stdDeviation="6" in="color" result="blur1"></feGaussianBlur><feGaussianBlur stdDeviation="2.5" in="color" result="blur2"></feGaussianBlur><feGaussianBlur stdDeviation="1" in="SourceAlpha" result="blur3"></feGaussianBlur><feGaussianBlur stdDeviation="6" in="dilate" result="blur4"></feGaussianBlur><feConvolveMatrix in="color2" result="conv" order="3,3" divisor="1" kernelMatrix="1 1 1  1 1 1  1 1 1"></feConvolveMatrix><feMerge><feMergeNode in="blur1"></feMergeNode><feMergeNode in="blur2"></feMergeNode><feMergeNode in="blur4"></feMergeNode><feMergeNode in="blur3"></feMergeNode><feMergeNode in="blur3"></feMergeNode><feMergeNode in="blur3"></feMergeNode><feMergeNode in="blur3"></feMergeNode><feMergeNode in="conv"></feMergeNode><feMergeNode in="SourceGraphic"></feMergeNode></feMerge></filter></defs><g filter="url(#editing-neon)"><g transform="translate(-39.058122634887695, 99)"><path d="M29.18 1.28L29.18 1.28L29.18 1.28Q20.99 1.28 20.22-10.37L20.22-10.37L9.22-10.37L9.22-10.37Q7.94-7.42 7.04-4.86L7.04-4.86L5.38 0L-3.58 0L16.58-42.24L30.34-42.24L33.02-11.14L33.02-11.14Q33.66-4.42 36.22-2.43L36.22-2.43L36.22-2.43Q34.37 1.28 29.18 1.28ZM14.72-23.17L11.20-15.04L20.03-15.04L19.26-31.49L19.26-33.22L14.72-23.17ZM86.02 1.28L86.02 1.28L86.02 1.28Q78.27 1.28 78.27-4.74L78.27-4.74L78.27-4.74Q78.27-7.36 79.39-12.45L79.39-12.45L79.39-12.45Q80.51-17.54 80.90-19.58L80.90-19.58L80.90-19.58Q81.79-24.26 81.79-25.73L81.79-25.73L81.79-25.73Q81.79-28.99 79.36-28.99L79.36-28.99L79.36-28.99Q77.76-28.99 76.22-26.78L76.22-26.78L76.22-26.78Q74.69-24.58 73.98-20.16L73.98-20.16L70.02 0L57.54 1.28L60.99-16.13L60.99-16.13Q61.57-19.01 62.08-22.27L62.08-22.27L62.08-22.27Q62.59-25.54 62.59-26.05L62.59-26.05L62.59-26.05Q62.59-28.99 60.42-28.99L60.42-28.99L60.42-28.99Q58.94-28.99 57.34-26.82L57.34-26.82L57.34-26.82Q55.74-24.64 54.85-20.16L54.85-20.16L50.94 0L38.34 1.28L45.06-32.64L55.49-33.92L54.40-27.46L54.40-27.46Q56.06-30.91 59.14-32.42L59.14-32.42L59.14-32.42Q62.21-33.92 67.01-33.92L67.01-33.92L67.01-33.92Q69.76-33.92 71.55-32.58L71.55-32.58L71.55-32.58Q73.34-31.23 73.92-29.06L73.92-29.06L73.92-29.06Q75.01-31.30 77.79-32.61L77.79-32.61L77.79-32.61Q80.58-33.92 84-33.92L84-33.92L84-33.92Q87.42-33.92 89.12-33.18L89.12-33.18L89.12-33.18Q90.82-32.45 91.84-31.23L91.84-31.23L91.84-31.23Q93.57-28.99 93.57-24.90L93.57-24.90L93.57-24.90Q93.57-20.86 91.84-12.48L91.84-12.48L91.84-12.48Q90.94-8.38 90.94-6.88L90.94-6.88L90.94-6.88Q90.94-5.38 91.81-4.48L91.81-4.48L91.81-4.48Q92.67-3.58 93.95-3.46L93.95-3.46L93.95-3.46Q93.31-1.28 91.10 0L91.10 0L91.10 0Q88.90 1.28 86.02 1.28ZM114.24-3.52L114.24-3.52L114.24-3.52Q112.26 1.28 105.92 1.28L105.92 1.28L105.92 1.28Q102.66 1.28 100.61-0.96L100.61-0.96L100.61-0.96Q98.88-2.94 98.88-4.93L98.88-4.93L98.88-4.93Q98.88-10.11 101.25-20.22L101.25-20.22L103.62-32.64L116.61-33.92L112.70-13.70L112.70-13.70Q111.62-8.96 111.62-7.30L111.62-7.30L111.62-7.30Q111.62-3.65 114.24-3.52ZM104.77-41.54L104.77-41.54L104.77-41.54Q104.77-44.03 106.85-45.38L106.85-45.38L106.85-45.38Q108.93-46.72 111.94-46.72L111.94-46.72L111.94-46.72Q114.94-46.72 116.77-45.38L116.77-45.38L116.77-45.38Q118.59-44.03 118.59-41.54L118.59-41.54L118.59-41.54Q118.59-39.04 116.58-37.76L116.58-37.76L116.58-37.76Q114.56-36.48 111.55-36.48L111.55-36.48L111.55-36.48Q108.54-36.48 106.66-37.76L106.66-37.76L106.66-37.76Q104.77-39.04 104.77-41.54ZM139.71-17.98L139.71-17.98L139.71-17.98Q142.02-22.08 142.02-26.24L142.02-26.24L142.02-26.24Q142.02-28.99 140.03-28.99L140.03-28.99L140.03-28.99Q138.50-28.99 136.90-26.37L136.90-26.37L136.90-26.37Q135.23-23.74 134.72-20.35L134.72-20.35L131.39 0L118.14 1.28L124.67-32.64L135.23-33.92L134.08-27.46L134.08-27.46Q137.22-33.92 144.26-33.92L144.26-33.92L144.26-33.92Q147.97-33.92 149.98-32L149.98-32L149.98-32Q152-30.08 152-26.14L152-26.14L152-26.14Q152-22.21 149.41-19.71L149.41-19.71L149.41-19.71Q146.82-17.22 142.40-17.22L142.40-17.22L142.40-17.22Q140.48-17.22 139.71-17.98ZM193.54-9.86L193.54-9.86L193.54-9.86Q194.75-8.32 194.75-5.82L194.75-5.82L194.75-5.82Q194.75-2.37 192.19-0.54L192.19-0.54L192.19-0.54Q189.63 1.28 185.60 1.28L185.60 1.28L185.60 1.28Q183.30 1.28 179.78 0.77L179.78 0.77L179.78 0.77Q172.86-0.32 170.75-0.32L170.75-0.32L170.75-0.32Q168.64-0.32 167.81-0.22L167.81-0.22L167.81-0.22Q166.98-0.13 165.63 0L165.63 0L173.50-42.24L201.09-42.24L201.09-42.24Q201.09-38.34 199.20-36.29L199.20-36.29L199.20-36.29Q197.31-34.24 193.60-34.24L193.60-34.24L193.60-34.24Q189.89-34.24 186.11-35.97L186.11-35.97L184.13-24.77L195.52-24.77L195.52-24.77Q195.52-21.38 193.86-19.49L193.86-19.49L193.86-19.49Q192.19-17.60 189.41-17.60L189.41-17.60L189.41-17.60Q186.62-17.60 184.90-18.24L184.90-18.24L184.90-18.24Q183.17-18.88 182.98-19.07L182.98-19.07L180.67-6.98L180.67-6.98Q182.21-6.78 185.09-6.78L185.09-6.78L185.09-6.78Q190.02-6.78 193.54-9.86ZM199.81-3.07L199.81-3.07L207.74-44.80L220.74-46.08L218.75-36.29L218.75-36.29Q218.05-33.28 217.15-31.17L217.15-31.17L217.15-31.17Q218.56-32.96 221.63-33.66L221.63-33.66L221.63-33.66Q222.53-33.92 223.62-33.92L223.62-33.92L223.62-33.92Q229.57-33.92 232.83-30.30L232.83-30.30L232.83-30.30Q236.10-26.69 236.10-19.71L236.10-19.71L236.10-19.71Q236.10-10.62 230.91-4.93L230.91-4.93L230.91-4.93Q225.34 1.28 215.23 1.28L215.23 1.28L215.23 1.28Q208.26 1.28 203.01-1.02L203.01-1.02L203.01-1.02Q201.15-1.86 199.81-3.07ZM216.06-22.40L212.67-3.65L212.67-3.65Q214.02-2.50 215.68-2.50L215.68-2.50L215.68-2.50Q217.34-2.50 218.30-3.14L218.30-3.14L218.30-3.14Q219.26-3.78 219.97-5.06L219.97-5.06L219.97-5.06Q221.89-8.51 223.42-19.07L223.42-19.07L223.42-19.07Q223.87-22.08 223.87-25.09L223.87-25.09L223.87-25.09Q223.87-28.10 223.20-29.06L223.20-29.06L223.20-29.06Q222.53-30.02 221.25-30.02L221.25-30.02L221.25-30.02Q217.34-30.02 216.06-22.40L216.06-22.40ZM259.97-17.98L259.97-17.98L259.97-17.98Q262.27-22.08 262.27-26.24L262.27-26.24L262.27-26.24Q262.27-28.99 260.29-28.99L260.29-28.99L260.29-28.99Q258.75-28.99 257.15-26.37L257.15-26.37L257.15-26.37Q255.49-23.74 254.98-20.35L254.98-20.35L251.65 0L238.40 1.28L244.93-32.64L255.49-33.92L254.34-27.46L254.34-27.46Q257.47-33.92 264.51-33.92L264.51-33.92L264.51-33.92Q268.22-33.92 270.24-32L270.24-32L270.24-32Q272.26-30.08 272.26-26.14L272.26-26.14L272.26-26.14Q272.26-22.21 269.66-19.71L269.66-19.71L269.66-19.71Q267.07-17.22 262.66-17.22L262.66-17.22L262.66-17.22Q260.74-17.22 259.97-17.98ZM276.06-1.92L276.06-1.92L276.06-1.92Q274.56-3.58 273.89-6.21L273.89-6.21L273.89-6.21Q273.22-8.83 273.22-13.12L273.22-13.12L273.22-13.12Q273.22-17.41 274.69-21.31L274.69-21.31L274.69-21.31Q276.16-25.22 278.85-28.03L278.85-28.03L278.85-28.03Q284.35-33.92 293.44-33.92L293.44-33.92L293.44-33.92Q296.70-33.92 299.07-32.83L299.07-32.83L310.02-33.92L305.28-8.96L305.28-8.96Q305.09-8.19 305.09-6.78L305.09-6.78L305.09-6.78Q305.09-5.38 305.95-4.48L305.95-4.48L305.95-4.48Q306.82-3.58 308.10-3.46L308.10-3.46L308.10-3.46Q307.46-1.28 305.12 0L305.12 0L305.12 0Q302.78 1.28 300.16 1.28L300.16 1.28L300.16 1.28Q297.54 1.28 295.78 0.29L295.78 0.29L295.78 0.29Q294.02-0.70 293.50-2.37L293.50-2.37L293.50-2.37Q292.48-0.77 290.30 0.26L290.30 0.26L290.30 0.26Q288.13 1.28 285.22 1.28L285.22 1.28L285.22 1.28Q282.30 1.28 279.94 0.51L279.94 0.51L279.94 0.51Q277.57-0.26 276.06-1.92ZM289.57-27.90L289.57-27.90L289.57-27.90Q288.83-26.75 288.19-24.80L288.19-24.80L288.19-24.80Q287.55-22.85 286.50-17.63L286.50-17.63L286.50-17.63Q285.44-12.42 285.44-8.70L285.44-8.70L285.44-8.70Q285.44-4.99 286.02-3.90L286.02-3.90L286.02-3.90Q286.59-2.82 287.62-2.82L287.62-2.82L287.62-2.82Q289.66-2.82 291.17-4.77L291.17-4.77L291.17-4.77Q292.67-6.72 293.25-10.18L293.25-10.18L296.64-28.93L296.64-28.93Q295.30-30.08 293.73-30.08L293.73-30.08L293.73-30.08Q292.16-30.08 291.23-29.57L291.23-29.57L291.23-29.57Q290.30-29.06 289.57-27.90ZM345.66-7.10L345.66-7.10L345.66-7.10Q345.66-4.29 348.54-3.46L348.54-3.46L348.54-3.46Q347.84-1.09 345.09 0.19L345.09 0.19L345.09 0.19Q342.78 1.28 340.26 1.28L340.26 1.28L340.26 1.28Q337.73 1.28 336.42 0.61L336.42 0.61L336.42 0.61Q335.10-0.06 334.40-1.15L334.40-1.15L334.40-1.15Q333.25-2.82 333.25-5.95L333.25-5.95L333.25-5.95Q333.25-7.81 334.27-12.93L334.27-12.93L335.17-17.79L335.17-17.79Q336.26-23.36 336.26-25.41L336.26-25.41L336.26-25.41Q336.26-28.99 334.27-28.99L334.27-28.99L334.27-28.99Q331.78-28.99 330.18-25.34L330.18-25.34L330.18-25.34Q329.54-23.94 329.09-21.82L329.09-21.82L324.74 0L311.87 1.28L320.90-44.80L333.76-46.08L333.25-43.52L333.25-43.52Q331.46-33.66 329.92-30.34L329.92-30.34L329.92-30.34Q333.50-33.92 340.10-33.92L340.10-33.92L340.10-33.92Q347.07-33.92 348.35-29.31L348.35-29.31L348.35-29.31Q348.80-27.84 348.80-26.56L348.80-26.56L348.80-26.56Q348.80-25.28 348.70-24.29L348.70-24.29L348.70-24.29Q348.61-23.30 348.29-21.50L348.29-21.50L347.46-16.90L345.98-9.66L345.98-9.66Q345.66-8.19 345.66-7.10ZM369.09-3.52L369.09-3.52L369.09-3.52Q367.10 1.28 360.77 1.28L360.77 1.28L360.77 1.28Q357.50 1.28 355.46-0.96L355.46-0.96L355.46-0.96Q353.73-2.94 353.73-4.93L353.73-4.93L353.73-4.93Q353.73-10.11 356.10-20.22L356.10-20.22L358.46-32.64L371.46-33.92L367.55-13.70L367.55-13.70Q366.46-8.96 366.46-7.30L366.46-7.30L366.46-7.30Q366.46-3.65 369.09-3.52ZM359.62-41.54L359.62-41.54L359.62-41.54Q359.62-44.03 361.70-45.38L361.70-45.38L361.70-45.38Q363.78-46.72 366.78-46.72L366.78-46.72L366.78-46.72Q369.79-46.72 371.62-45.38L371.62-45.38L371.62-45.38Q373.44-44.03 373.44-41.54L373.44-41.54L373.44-41.54Q373.44-39.04 371.42-37.76L371.42-37.76L371.42-37.76Q369.41-36.48 366.40-36.48L366.40-36.48L366.40-36.48Q363.39-36.48 361.50-37.76L361.50-37.76L361.50-37.76Q359.62-39.04 359.62-41.54ZM420.61 1.28L420.61 1.28L420.61 1.28Q412.86 1.28 412.86-4.74L412.86-4.74L412.86-4.74Q412.86-7.36 413.98-12.45L413.98-12.45L413.98-12.45Q415.10-17.54 415.49-19.58L415.49-19.58L415.49-19.58Q416.38-24.26 416.38-25.73L416.38-25.73L416.38-25.73Q416.38-28.99 413.95-28.99L413.95-28.99L413.95-28.99Q412.35-28.99 410.82-26.78L410.82-26.78L410.82-26.78Q409.28-24.58 408.58-20.16L408.58-20.16L404.61 0L392.13 1.28L395.58-16.13L395.58-16.13Q396.16-19.01 396.67-22.27L396.67-22.27L396.67-22.27Q397.18-25.54 397.18-26.05L397.18-26.05L397.18-26.05Q397.18-28.99 395.01-28.99L395.01-28.99L395.01-28.99Q393.54-28.99 391.94-26.82L391.94-26.82L391.94-26.82Q390.34-24.64 389.44-20.16L389.44-20.16L385.54 0L372.93 1.28L379.65-32.64L390.08-33.92L388.99-27.46L388.99-27.46Q390.66-30.91 393.73-32.42L393.73-32.42L393.73-32.42Q396.80-33.92 401.60-33.92L401.60-33.92L401.60-33.92Q404.35-33.92 406.14-32.58L406.14-32.58L406.14-32.58Q407.94-31.23 408.51-29.06L408.51-29.06L408.51-29.06Q409.60-31.30 412.38-32.61L412.38-32.61L412.38-32.61Q415.17-33.92 418.59-33.92L418.59-33.92L418.59-33.92Q422.02-33.92 423.71-33.18L423.71-33.18L423.71-33.18Q425.41-32.45 426.43-31.23L426.43-31.23L426.43-31.23Q428.16-28.99 428.16-24.90L428.16-24.90L428.16-24.90Q428.16-20.86 426.43-12.48L426.43-12.48L426.43-12.48Q425.54-8.38 425.54-6.88L425.54-6.88L425.54-6.88Q425.54-5.38 426.40-4.48L426.40-4.48L426.40-4.48Q427.26-3.58 428.54-3.46L428.54-3.46L428.54-3.46Q427.90-1.28 425.70 0L425.70 0L425.70 0Q423.49 1.28 420.61 1.28ZM445.79 0.64L445.79 0.64L445.79 0.64Q442.75 0 441.18-0.29L441.18-0.29L441.18-0.29Q439.62-0.58 437.79-0.58L437.79-0.58L437.79-0.58Q435.97-0.58 434.18 0.06L434.18 0.06L434.18 0.06Q433.22-0.51 432.61-1.66L432.61-1.66L432.61-1.66Q432-2.82 432-4.61L432-4.61L432-4.61Q432-8.38 435.84-11.26L435.84-11.26L452.10-22.98L452.10-22.98Q447.55-24.26 443.42-24.26L443.42-24.26L443.42-24.26Q439.30-24.26 437.82-21.44L437.82-21.44L437.82-21.44Q435.65-24 435.65-28.03L435.65-28.03L435.65-28.03Q435.65-30.72 437.60-32.48L437.60-32.48L437.60-32.48Q439.55-34.24 443.65-34.24L443.65-34.24L443.65-34.24Q445.95-34.24 448.03-33.95L448.03-33.95L448.03-33.95Q450.11-33.66 451.97-33.41L451.97-33.41L455.42-32.90L455.42-32.90Q457.09-32.64 458.78-32.64L458.78-32.64L458.78-32.64Q460.48-32.64 461.76-33.34L461.76-33.34L461.76-33.34Q463.42-31.81 463.42-29.70L463.42-29.70L463.42-29.70Q463.42-26.37 459.33-22.91L459.33-22.91L443.14-10.82L443.14-10.82Q448.13-9.34 450.69-9.34L450.69-9.34L450.69-9.34Q456.06-9.34 458.37-11.90L458.37-11.90L458.37-11.90Q460.16-9.86 460.16-6.30L460.16-6.30L460.16-6.30Q460.16-2.75 457.86-0.74L457.86-0.74L457.86-0.74Q455.55 1.28 451.39 1.28L451.39 1.28L451.39 1.28Q448.83 1.28 445.79 0.64ZM468.51-1.92L468.51-1.92L468.51-1.92Q467.01-3.58 466.34-6.21L466.34-6.21L466.34-6.21Q465.66-8.83 465.66-13.12L465.66-13.12L465.66-13.12Q465.66-17.41 467.14-21.31L467.14-21.31L467.14-21.31Q468.61-25.22 471.30-28.03L471.30-28.03L471.30-28.03Q476.80-33.92 485.89-33.92L485.89-33.92L485.89-33.92Q489.15-33.92 491.52-32.83L491.52-32.83L502.46-33.92L497.73-8.96L497.73-8.96Q497.54-8.19 497.54-6.78L497.54-6.78L497.54-6.78Q497.54-5.38 498.40-4.48L498.40-4.48L498.40-4.48Q499.26-3.58 500.54-3.46L500.54-3.46L500.54-3.46Q499.90-1.28 497.57 0L497.57 0L497.57 0Q495.23 1.28 492.61 1.28L492.61 1.28L492.61 1.28Q489.98 1.28 488.22 0.29L488.22 0.29L488.22 0.29Q486.46-0.70 485.95-2.37L485.95-2.37L485.95-2.37Q484.93-0.77 482.75 0.26L482.75 0.26L482.75 0.26Q480.58 1.28 477.66 1.28L477.66 1.28L477.66 1.28Q474.75 1.28 472.38 0.51L472.38 0.51L472.38 0.51Q470.02-0.26 468.51-1.92ZM482.02-27.90L482.02-27.90L482.02-27.90Q481.28-26.75 480.64-24.80L480.64-24.80L480.64-24.80Q480-22.85 478.94-17.63L478.94-17.63L478.94-17.63Q477.89-12.42 477.89-8.70L477.89-8.70L477.89-8.70Q477.89-4.99 478.46-3.90L478.46-3.90L478.46-3.90Q479.04-2.82 480.06-2.82L480.06-2.82L480.06-2.82Q482.11-2.82 483.62-4.77L483.62-4.77L483.62-4.77Q485.12-6.72 485.70-10.18L485.70-10.18L489.09-28.93L489.09-28.93Q487.74-30.08 486.18-30.08L486.18-30.08L486.18-30.08Q484.61-30.08 483.68-29.57L483.68-29.57L483.68-29.57Q482.75-29.06 482.02-27.90ZM525.82-33.92L525.82-33.92L525.82-33.92Q528.13-33.92 529.92-33.41L529.92-33.41L529.92-33.41Q529.98-33.66 530.11-34.37L530.11-34.37L530.43-36.35L530.43-36.35Q530.69-37.63 531.07-39.74L531.07-39.74L532.10-44.80L544.83-46.08L537.73-8.96L537.73-8.96Q537.66-8.58 537.66-7.94L537.66-7.94L537.66-6.91L537.66-6.91Q537.66-5.50 538.37-4.45L538.37-4.45L538.37-4.45Q539.07-3.39 540.22-3.39L540.22-3.39L540.22-3.39Q538.94-0.38 535.04 0.90L535.04 0.90L535.04 0.90Q533.70 1.28 531.81 1.28L531.81 1.28L531.81 1.28Q529.92 1.28 528.19 0.29L528.19 0.29L528.19 0.29Q526.46-0.70 525.95-2.37L525.95-2.37L525.95-2.37Q524.93-0.70 522.88 0.29L522.88 0.29L522.88 0.29Q520.83 1.28 517.86 1.28L517.86 1.28L517.86 1.28Q514.88 1.28 512.42 0.51L512.42 0.51L512.42 0.51Q509.95-0.26 508.42-1.92L508.42-1.92L508.42-1.92Q505.60-5.18 505.60-12.61L505.60-12.61L505.60-12.61Q505.60-22.21 511.23-28.03L511.23-28.03L511.23-28.03Q516.86-33.92 525.82-33.92ZM525.38-30.08L525.38-30.08L525.38-30.08Q523.01-30.08 521.73-27.52L521.73-27.52L521.73-27.52Q520.45-24.96 519.14-18.62L519.14-18.62L519.14-18.62Q517.82-12.29 517.82-6.59L517.82-6.59L517.82-6.59Q517.82-2.69 520.13-2.69L520.13-2.69L520.13-2.69Q522.18-2.69 523.62-4.74L523.62-4.74L523.62-4.74Q525.06-6.78 525.63-10.18L525.63-10.18L529.09-28.93L529.09-28.93Q527.74-30.08 525.38-30.08ZM571.58-10.82L571.58-10.82L571.58-10.82Q573.18-9.73 573.18-7.33L573.18-7.33L573.18-7.33Q573.18-4.93 571.97-3.39L571.97-3.39L571.97-3.39Q570.75-1.86 568.77-0.83L568.77-0.83L568.77-0.83Q564.67 1.28 560.26 1.28L560.26 1.28L560.26 1.28Q555.84 1.28 553.25 0.32L553.25 0.32L553.25 0.32Q550.66-0.64 548.93-2.43L548.93-2.43L548.93-2.43Q545.54-5.82 545.54-12.03L545.54-12.03L545.54-12.03Q545.54-21.70 550.78-27.58L550.78-27.58L550.78-27.58Q556.42-33.92 566.21-33.92L566.21-33.92L566.21-33.92Q572.29-33.92 575.30-31.36L575.30-31.36L575.30-31.36Q577.54-29.44 577.54-26.30L577.54-26.30L577.54-26.30Q577.54-15.04 558.08-15.04L558.08-15.04L558.08-15.04Q557.82-13.38 557.82-11.97L557.82-11.97L557.82-11.97Q557.82-9.02 559.14-7.90L559.14-7.90L559.14-7.90Q560.45-6.78 562.88-6.78L562.88-6.78L562.88-6.78Q565.31-6.78 567.90-7.90L567.90-7.90L567.90-7.90Q570.50-9.02 571.58-10.82ZM558.53-17.79L558.53-17.79L558.53-17.79Q563.07-17.79 565.70-20.61L565.70-20.61L565.70-20.61Q568.32-23.30 568.32-27.58L568.32-27.58L568.32-27.58Q568.32-29.06 567.78-29.86L567.78-29.86L567.78-29.86Q567.23-30.66 566.14-30.66L566.14-30.66L566.14-30.66Q565.06-30.66 564.13-30.24L564.13-30.24L564.13-30.24Q563.20-29.82 562.24-28.42L562.24-28.42L562.24-28.42Q559.87-25.22 558.53-17.79Z" fill="none" stroke="#e9ffd4" stroke-width="1"></path></g></g><style>text {
  font-size: 64px;
  font-family: Arial Black;
  dominant-baseline: central;
  text-anchor: middle;
}</style></svg>